<svg width="86" height="45" viewBox="0 0 86 45" fill="none" xmlns="http://www.w3.org/2000/svg">
<g filter="url(#filter0_d_407_187)">
<path fill-rule="evenodd" clip-rule="evenodd" d="M16.2301 2.89062C17.1951 2.89062 17.9773 3.66713 17.9773 4.625V10.4062C17.9773 11.3641 17.1951 12.1406 16.2301 12.1406C15.2652 12.1406 14.483 11.3641 14.483 10.4062V4.625C14.483 3.66713 15.2652 2.89062 16.2301 2.89062Z" fill="#1B1D1E"/>
<path fill-rule="evenodd" clip-rule="evenodd" d="M16.2301 15.0312C17.1951 15.0312 17.9773 15.8078 17.9773 16.7656V32.375C17.9773 33.3329 17.1951 34.1094 16.2301 34.1094C15.2652 34.1094 14.483 33.3329 14.483 32.375V16.7656C14.483 15.8078 15.2652 15.0312 16.2301 15.0312Z" fill="#1B1D1E"/>
<path fill-rule="evenodd" clip-rule="evenodd" d="M10.9886 2.89062C11.9535 2.89062 12.7358 3.66713 12.7358 4.625V11.5625C12.7358 12.4825 13.1039 13.3648 13.7592 14.0153C14.4145 14.6658 15.3033 15.0312 16.2301 15.0312C17.1568 15.0312 18.0456 14.6658 18.7009 14.0153C19.3563 13.3648 19.7244 12.4825 19.7244 11.5625V4.625C19.7244 3.66713 20.5066 2.89062 21.4716 2.89062C22.4365 2.89062 23.2187 3.66713 23.2187 4.625V11.5625C23.2187 13.4024 22.4824 15.167 21.1718 16.4681C19.8612 17.7691 18.0836 18.5 16.2301 18.5C14.3766 18.5 12.599 17.7691 11.2884 16.4681C9.97776 15.167 9.24146 13.4024 9.24146 11.5625V4.625C9.24146 3.66713 10.0237 2.89062 10.9886 2.89062Z" fill="#1B1D1E"/>
<path fill-rule="evenodd" clip-rule="evenodd" d="M34.7041 3.20444C35.1709 3.52902 35.4489 4.05924 35.4489 4.62501V32.375C35.4489 33.3329 34.6667 34.1094 33.7017 34.1094C32.7368 34.1094 31.9546 33.3329 31.9546 32.375V24.8594H25.5483C25.0525 24.8594 24.5801 24.6503 24.2487 24.2842C23.9174 23.9182 23.7583 23.4296 23.8111 22.9402L25.5483 23.125C23.8111 22.9402 23.8111 22.9407 23.8111 22.9402L23.8117 22.9348L23.8129 22.9234L23.8175 22.8834C23.8214 22.8491 23.8271 22.7999 23.8347 22.7366C23.85 22.6099 23.8729 22.4269 23.9042 22.1949C23.9667 21.731 24.0629 21.07 24.1986 20.2712C24.4692 18.6778 24.9003 16.5166 25.5417 14.2694C26.1794 12.0352 27.0449 9.64415 28.2095 7.62835C29.3519 5.65107 30.9281 3.78073 33.1046 2.99506C33.6403 2.80171 34.2372 2.87986 34.7041 3.20444ZM27.5547 21.3906H31.9546V8.25023C31.714 8.57952 31.4757 8.9473 31.2407 9.35409C30.276 11.0238 29.5035 13.1133 28.9037 15.215C28.3075 17.3038 27.9014 19.334 27.6442 20.8479C27.612 21.0375 27.5822 21.2188 27.5547 21.3906Z" fill="#1B1D1E"/>
<path d="M49.8962 3C50.431 3 50.9275 3.06893 51.3859 3.20679C51.8501 3.34464 52.2527 3.55143 52.5935 3.82715C52.9403 4.09687 53.2106 4.43552 53.4045 4.8431C53.6043 5.25068 53.7042 5.72718 53.7042 6.27262V11.8469C53.7042 12.3144 53.6543 12.728 53.5544 13.0876C53.4545 13.4412 53.3222 13.7499 53.1577 14.0136C52.999 14.2714 52.8168 14.4931 52.6112 14.6789C52.4055 14.8588 52.1969 15.0056 51.9853 15.1195C51.4799 15.3952 50.907 15.551 50.2664 15.587H47.3399C47.0049 15.587 46.7463 15.5301 46.5642 15.4162C46.382 15.2963 46.2498 15.1405 46.1675 14.9487C46.0852 14.7509 46.0353 14.5291 46.0176 14.2834C46.0059 14.0376 46 13.7829 46 13.5191V5.04988C46 4.79215 46.0059 4.54041 46.0176 4.29466C46.0353 4.04892 46.0852 3.83014 46.1675 3.63834C46.2498 3.44654 46.382 3.2937 46.5642 3.17981C46.7463 3.05994 47.0049 3 47.3399 3H49.8962ZM48.6797 5.10383V13.4472H49.8257C50.0784 13.4352 50.3046 13.3753 50.5044 13.2674C50.5867 13.2254 50.669 13.1685 50.7512 13.0966C50.8335 13.0247 50.907 12.9407 50.9716 12.8448C51.0362 12.7429 51.0862 12.6231 51.1214 12.4852C51.1626 12.3474 51.1832 12.1885 51.1832 12.0087V6.70418C51.1832 6.50638 51.1626 6.33256 51.1214 6.18271C51.0862 6.02688 51.0362 5.89201 50.9716 5.77813C50.907 5.66425 50.8335 5.56835 50.7512 5.49043C50.669 5.41251 50.5867 5.34957 50.5044 5.30162C50.3046 5.18774 50.0784 5.12181 49.8257 5.10383H48.6797Z" fill="#1B1D1E"/>
<path d="M62.5015 13.5551C62.5015 13.8068 62.4927 14.0556 62.475 14.3013C62.4574 14.5411 62.4045 14.7569 62.3164 14.9487C62.2282 15.1405 62.096 15.2963 61.9197 15.4162C61.7434 15.5301 61.4966 15.587 61.1792 15.587C60.856 15.587 60.6033 15.5331 60.4212 15.4252C60.239 15.3113 60.1038 15.1764 60.0157 15.0206C59.9275 14.8588 59.8717 14.6909 59.8482 14.5171C59.8306 14.3433 59.8217 14.1964 59.8217 14.0766C59.7689 14.2504 59.6925 14.4272 59.5926 14.607C59.4985 14.7868 59.3751 14.9487 59.2223 15.0925C59.0695 15.2364 58.8844 15.3562 58.667 15.4521C58.4554 15.5421 58.2057 15.587 57.9177 15.587C57.5945 15.587 57.2713 15.5331 56.9481 15.4252C56.6249 15.3173 56.334 15.1375 56.0754 14.8857C55.8168 14.634 55.6053 14.3073 55.4407 13.9057C55.2821 13.4982 55.2027 12.9977 55.2027 12.4043V9.79698C55.2027 9.1976 55.2821 8.69712 55.4407 8.29553C55.6053 7.88795 55.8168 7.56129 56.0754 7.31555C56.334 7.06381 56.6249 6.88399 56.9481 6.7761C57.2713 6.66821 57.5945 6.61427 57.9177 6.61427C58.2057 6.61427 58.4554 6.65922 58.667 6.74913C58.8844 6.83904 59.0695 6.95592 59.2223 7.09977C59.3751 7.24362 59.4985 7.40545 59.5926 7.58527C59.6925 7.76508 59.7689 7.9449 59.8217 8.12471C59.8217 7.82502 59.8629 7.57628 59.9452 7.37848C60.0274 7.18068 60.1332 7.02485 60.2625 6.91096C60.3918 6.79109 60.5357 6.71017 60.6944 6.66821C60.859 6.62026 61.0206 6.59629 61.1792 6.59629C61.4731 6.59629 61.7081 6.65623 61.8844 6.7761C62.0607 6.88998 62.1929 7.04283 62.2811 7.23463C62.3751 7.42044 62.4339 7.63921 62.4574 7.89095C62.4868 8.1367 62.5015 8.38844 62.5015 8.64617V13.5551ZM57.9177 12.1705C57.9177 12.3324 57.9236 12.4912 57.9354 12.647C57.9471 12.8029 57.9794 12.9437 58.0323 13.0696C58.0852 13.1955 58.1616 13.2974 58.2615 13.3753C58.3673 13.4472 58.5113 13.4832 58.6934 13.4832C58.9226 13.4832 59.1077 13.4322 59.2488 13.3303C59.3957 13.2224 59.5103 13.0606 59.5926 12.8448C59.6748 12.6231 59.7307 12.3474 59.76 12.0177C59.7953 11.682 59.8159 11.2834 59.8217 10.8219C59.8217 10.6361 59.8041 10.4233 59.7689 10.1836C59.7395 9.93784 59.6836 9.70708 59.6014 9.4913C59.5191 9.27552 59.4045 9.09271 59.2576 8.94287C59.1107 8.79302 58.9226 8.7181 58.6934 8.7181C58.5113 8.7181 58.3673 8.75706 58.2615 8.83498C58.1616 8.9069 58.0852 9.0028 58.0323 9.12268C57.9794 9.24256 57.9471 9.38041 57.9354 9.53625C57.9236 9.6861 57.9177 9.83894 57.9177 9.99478V12.1705Z" fill="#1B1D1E"/>
<path d="M64.811 8.61021C64.811 8.35847 64.8227 8.11272 64.8462 7.87297C64.8756 7.63322 64.9373 7.42044 65.0313 7.23463C65.1254 7.04283 65.2605 6.88998 65.4368 6.7761C65.6131 6.65623 65.8511 6.59629 66.1508 6.59629C66.4505 6.59629 66.6885 6.65623 66.8648 6.7761C67.0411 6.88998 67.1763 7.04283 67.2703 7.23463C67.3643 7.42044 67.4231 7.63322 67.4466 7.87297C67.476 8.11272 67.4907 8.35847 67.4907 8.61021V13.5731C67.4907 13.8248 67.476 14.0736 67.4466 14.3193C67.4231 14.5591 67.3643 14.7748 67.2703 14.9666C67.1763 15.1525 67.0411 15.3023 66.8648 15.4162C66.6885 15.5301 66.4505 15.587 66.1508 15.587C65.8511 15.587 65.6131 15.5301 65.4368 15.4162C65.2605 15.3023 65.1254 15.1525 65.0313 14.9666C64.9373 14.7748 64.8756 14.5591 64.8462 14.3193C64.8227 14.0736 64.811 13.8248 64.811 13.5731V8.61021ZM67.5083 4.36659C67.5083 4.82811 67.3908 5.17276 67.1557 5.40052C66.9207 5.62229 66.5916 5.73318 66.1685 5.73318C65.7453 5.73318 65.4163 5.62229 65.1812 5.40052C64.9461 5.17276 64.8286 4.82811 64.8286 4.36659C64.8286 3.88708 64.9461 3.53944 65.1812 3.32367C65.4163 3.10789 65.7453 3 66.1685 3C66.621 3 66.9559 3.10789 67.1734 3.32367C67.3967 3.53944 67.5083 3.88708 67.5083 4.36659Z" fill="#1B1D1E"/>
<path d="M70.2057 4.99594C70.2057 4.7442 70.2174 4.49845 70.2409 4.2587C70.2703 4.01895 70.332 3.80617 70.4261 3.62036C70.5201 3.43455 70.6552 3.28471 70.8315 3.17082C71.0078 3.05694 71.2458 3 71.5455 3C71.8511 3 72.0921 3.05694 72.2684 3.17082C72.4447 3.28471 72.5769 3.43455 72.665 3.62036C72.7591 3.80617 72.8178 4.01895 72.8413 4.2587C72.8707 4.49845 72.8854 4.7442 72.8854 4.99594V13.5731C72.8854 13.8248 72.8707 14.0736 72.8413 14.3193C72.8178 14.5591 72.7591 14.7748 72.665 14.9666C72.5769 15.1525 72.4447 15.3023 72.2684 15.4162C72.0921 15.5301 71.8511 15.587 71.5455 15.587C71.2458 15.587 71.0078 15.5301 70.8315 15.4162C70.6552 15.3023 70.5201 15.1525 70.4261 14.9666C70.332 14.7748 70.2703 14.5591 70.2409 14.3193C70.2174 14.0736 70.2057 13.8248 70.2057 13.5731V4.99594Z" fill="#1B1D1E"/>
<path d="M76.1645 19.1833C75.4946 19.1833 75.0186 19.0844 74.7365 18.8866C74.4545 18.6948 74.3134 18.4101 74.3134 18.0325C74.3134 17.8467 74.3369 17.6908 74.3839 17.565C74.4368 17.4391 74.5073 17.3372 74.5955 17.2593C74.6836 17.1814 74.7835 17.1244 74.8952 17.0885C75.0127 17.0585 75.1361 17.0435 75.2654 17.0435C75.3536 17.0435 75.4358 17.0465 75.5122 17.0525C75.5886 17.0585 75.6533 17.0615 75.7062 17.0615C75.8178 17.0615 75.9236 16.9926 76.0235 16.8547C76.1293 16.7228 76.2292 16.555 76.3232 16.3512C76.4231 16.1474 76.523 15.9287 76.6229 15.6949C76.7228 15.4611 76.8227 15.2454 76.9226 15.0476L76.7816 14.6879C76.6112 14.2504 76.4319 13.7919 76.2439 13.3124C76.0558 12.8269 75.8678 12.3384 75.6797 11.8469C75.4976 11.3494 75.3154 10.8549 75.1332 10.3634C74.9569 9.87191 74.7953 9.3954 74.6484 8.93387C74.5837 8.74207 74.5279 8.55327 74.4809 8.36746C74.4398 8.18165 74.4192 7.99884 74.4192 7.81903C74.4192 7.64521 74.4545 7.48337 74.525 7.33353C74.5955 7.18368 74.6925 7.05481 74.8159 6.94693C74.9393 6.83904 75.0803 6.75512 75.239 6.69519C75.4035 6.62925 75.5769 6.59629 75.7591 6.59629C75.9236 6.59629 76.0735 6.63225 76.2086 6.70418C76.3497 6.7761 76.4731 6.875 76.5788 7.00087C76.6905 7.12674 76.7875 7.27059 76.8697 7.43242C76.952 7.59426 77.0225 7.76508 77.0813 7.9449L78.2625 11.739L79.3908 7.9449C79.4437 7.77707 79.5113 7.60924 79.5935 7.44142C79.6758 7.27359 79.7728 7.12674 79.8844 7.00087C79.9961 6.86901 80.1224 6.76411 80.2635 6.68619C80.4045 6.60228 80.5602 6.56032 80.7307 6.56032C80.9011 6.56032 81.0627 6.59329 81.2155 6.65922C81.3741 6.72515 81.5093 6.81806 81.621 6.93794C81.7385 7.05182 81.8296 7.18968 81.8942 7.35151C81.9647 7.51334 82 7.68716 82 7.87297C82 8.05278 81.9765 8.2326 81.9295 8.41241C81.8883 8.58623 81.8355 8.76005 81.7708 8.93387L79.6552 14.652C79.5318 14.9756 79.3967 15.3113 79.2498 15.6589C79.1087 16.0126 78.953 16.3572 78.7826 16.6929C78.6121 17.0285 78.43 17.3462 78.236 17.6459C78.0421 17.9456 77.8364 18.2093 77.619 18.4371C77.4016 18.6648 77.1694 18.8446 76.9226 18.9765C76.6817 19.1144 76.429 19.1833 76.1645 19.1833Z" fill="#1B1D1E"/>
<path d="M49.8962 21.413C50.431 21.413 50.9275 21.4819 51.3859 21.6198C51.8501 21.7576 52.2527 21.9644 52.5935 22.2401C52.9403 22.5099 53.2106 22.8485 53.4045 23.2561C53.6043 23.6637 53.7042 24.1402 53.7042 24.6856V30.2599C53.7042 30.7274 53.6543 31.141 53.5544 31.5006C53.4545 31.8542 53.3222 32.1629 53.1577 32.4266C52.999 32.6844 52.8168 32.9061 52.6112 33.0919C52.4055 33.2718 52.1969 33.4186 51.9853 33.5325C51.4799 33.8082 50.907 33.964 50.2664 34H47.3399C47.0049 34 46.7463 33.9431 46.5642 33.8292C46.382 33.7093 46.2498 33.5535 46.1675 33.3617C46.0852 33.1639 46.0353 32.9421 46.0176 32.6963C46.0059 32.4506 46 32.1959 46 31.9321V23.4629C46 23.2051 46.0059 22.9534 46.0176 22.7077C46.0353 22.4619 46.0852 22.2431 46.1675 22.0513C46.2498 21.8595 46.382 21.7067 46.5642 21.5928C46.7463 21.4729 47.0049 21.413 47.3399 21.413H49.8962ZM48.6797 23.5168V31.8602H49.8257C50.0784 31.8482 50.3046 31.7883 50.5044 31.6804C50.5867 31.6384 50.669 31.5815 50.7512 31.5096C50.8335 31.4376 50.907 31.3537 50.9716 31.2578C51.0362 31.1559 51.0862 31.0361 51.1214 30.8982C51.1626 30.7603 51.1832 30.6015 51.1832 30.4217V25.1172C51.1832 24.9194 51.1626 24.7456 51.1214 24.5957C51.0862 24.4399 51.0362 24.305 50.9716 24.1911C50.907 24.0772 50.8335 23.9813 50.7512 23.9034C50.669 23.8255 50.5867 23.7626 50.5044 23.7146C50.3046 23.6007 50.0784 23.5348 49.8257 23.5168H48.6797Z" fill="#1B1D1E"/>
<path d="M55.8198 27.0232C55.8198 26.7715 55.8315 26.5257 55.855 26.286C55.8844 26.0462 55.9461 25.8334 56.0402 25.6476C56.1342 25.4558 56.2693 25.303 56.4456 25.1891C56.6219 25.0692 56.8599 25.0093 57.1596 25.0093C57.4594 25.0093 57.6974 25.0692 57.8737 25.1891C58.05 25.303 58.1851 25.4558 58.2791 25.6476C58.3732 25.8334 58.4319 26.0462 58.4554 26.286C58.4848 26.5257 58.4995 26.7715 58.4995 27.0232V31.9861C58.4995 32.2378 58.4848 32.4866 58.4554 32.7323C58.4319 32.9721 58.3732 33.1878 58.2791 33.3796C58.1851 33.5654 58.05 33.7153 57.8737 33.8292C57.6974 33.9431 57.4594 34 57.1596 34C56.8599 34 56.6219 33.9431 56.4456 33.8292C56.2693 33.7153 56.1342 33.5654 56.0402 33.3796C55.9461 33.1878 55.8844 32.9721 55.855 32.7323C55.8315 32.4866 55.8198 32.2378 55.8198 31.9861V27.0232ZM58.5171 22.7796C58.5171 23.2411 58.3996 23.5858 58.1645 23.8135C57.9295 24.0353 57.6004 24.1462 57.1773 24.1462C56.7542 24.1462 56.4251 24.0353 56.19 23.8135C55.9549 23.5858 55.8374 23.2411 55.8374 22.7796C55.8374 22.3001 55.9549 21.9524 56.19 21.7367C56.4251 21.5209 56.7542 21.413 57.1773 21.413C57.6298 21.413 57.9647 21.5209 58.1822 21.7367C58.4055 21.9524 58.5171 22.3001 58.5171 22.7796Z" fill="#1B1D1E"/>
<path d="M68.2311 28.8753C68.2311 28.9712 68.2253 29.0851 68.2135 29.2169C68.2018 29.3428 68.1548 29.4657 68.0725 29.5856C67.9961 29.6994 67.8727 29.7983 67.7023 29.8822C67.5318 29.9662 67.2909 30.0081 66.9794 30.0081H63.4711V30.8712C63.4711 31.0151 63.4887 31.1649 63.524 31.3208C63.5593 31.4766 63.618 31.6205 63.7003 31.7523C63.7884 31.8842 63.903 31.9921 64.0441 32.076C64.1851 32.1599 64.3585 32.2019 64.5642 32.2019C64.7992 32.2019 64.9785 32.1749 65.1019 32.1209C65.2311 32.061 65.331 31.9891 65.4016 31.9052C65.478 31.8212 65.5455 31.7313 65.6043 31.6354C65.6631 31.5395 65.7395 31.4496 65.8335 31.3657C65.9334 31.2818 66.0686 31.2129 66.239 31.1589C66.4153 31.099 66.6562 31.069 66.9618 31.069C67.1087 31.069 67.2498 31.081 67.3849 31.105C67.526 31.129 67.6494 31.1739 67.7551 31.2398C67.8609 31.3058 67.9461 31.3987 68.0108 31.5186C68.0754 31.6324 68.1077 31.7823 68.1077 31.9681C68.1077 32.3577 67.9873 32.6844 67.7463 32.9481C67.5054 33.2058 67.2027 33.4126 66.8384 33.5684C66.474 33.7243 66.0774 33.8352 65.6484 33.9011C65.2253 33.967 64.8286 34 64.4584 34C63.9706 33.994 63.5064 33.9311 63.0656 33.8112C62.6249 33.6913 62.2341 33.4995 61.8932 33.2358C61.5583 32.9721 61.2909 32.6274 61.0911 32.2019C60.8913 31.7763 60.7914 31.2548 60.7914 30.6375V28.5336C60.7914 27.9642 60.856 27.4817 60.9853 27.0861C61.1205 26.6905 61.2938 26.3609 61.5054 26.0972C61.7169 25.8334 61.9549 25.6296 62.2194 25.4858C62.4838 25.3359 62.7512 25.2251 63.0215 25.1531C63.2919 25.0812 63.5475 25.0363 63.7884 25.0183C64.0353 25.0003 64.2468 24.9913 64.4231 24.9913C65.0166 24.9913 65.522 25.0452 65.9393 25.1531C66.3624 25.261 66.715 25.4019 66.9971 25.5757C67.2791 25.7495 67.5024 25.9503 67.667 26.1781C67.8315 26.4058 67.9549 26.6426 68.0372 26.8883C68.1195 27.1281 68.1724 27.3738 68.1959 27.6256C68.2194 27.8713 68.2311 28.1021 68.2311 28.3179V28.8753ZM63.4711 28.6595H65.6748C65.6748 28.3778 65.666 28.1291 65.6484 27.9133C65.6366 27.6915 65.5926 27.5057 65.5162 27.3559C65.4456 27.206 65.331 27.0921 65.1724 27.0142C65.0196 26.9363 64.7992 26.8973 64.5113 26.8973C64.2703 26.8973 64.0793 26.9363 63.9383 27.0142C63.8031 27.0921 63.7003 27.191 63.6298 27.3109C63.5593 27.4248 63.5152 27.5477 63.4976 27.6795C63.4799 27.8114 63.4711 27.9283 63.4711 28.0302V28.6595Z" fill="#1B1D1E"/>
<path d="M71.2458 25.0093V23.4269C71.2458 23.1752 71.2576 22.9294 71.2811 22.6897C71.3105 22.4499 71.3722 22.2371 71.4662 22.0513C71.5602 21.8595 71.6954 21.7067 71.8717 21.5928C72.048 21.4729 72.286 21.413 72.5857 21.413C72.8795 21.413 73.1146 21.4729 73.2909 21.5928C73.4672 21.7067 73.5994 21.8595 73.6876 22.0513C73.7816 22.2371 73.8404 22.4499 73.8639 22.6897C73.8932 22.9294 73.9079 23.1752 73.9079 23.4269V25.0093H74.6308C74.7835 25.0093 74.9363 25.0183 75.0891 25.0363C75.2419 25.0482 75.3771 25.0902 75.4946 25.1621C75.618 25.234 75.715 25.3419 75.7855 25.4858C75.8619 25.6296 75.9001 25.8304 75.9001 26.0882C75.9001 26.3339 75.8619 26.5287 75.7855 26.6726C75.715 26.8164 75.618 26.9243 75.4946 26.9962C75.3771 27.0682 75.2419 27.1161 75.0891 27.1401C74.9363 27.1581 74.7835 27.1671 74.6308 27.1671H73.9079V30.3138C73.9079 30.4337 73.9109 30.5625 73.9167 30.7004C73.9285 30.8323 73.9608 30.9551 74.0137 31.069C74.0666 31.1829 74.1459 31.2788 74.2517 31.3567C74.3575 31.4287 74.5073 31.4646 74.7013 31.4646C74.9128 31.4646 75.0921 31.4826 75.239 31.5186C75.3918 31.5485 75.5152 31.6055 75.6092 31.6894C75.7091 31.7733 75.7826 31.8902 75.8296 32.04C75.8766 32.1899 75.9001 32.3817 75.9001 32.6154C75.9001 32.8552 75.8443 33.062 75.7326 33.2358C75.6268 33.4096 75.4829 33.5535 75.3007 33.6673C75.1185 33.7812 74.907 33.8651 74.666 33.9191C74.4251 33.973 74.1724 34 73.9079 34C73.4907 34 73.1322 33.955 72.8325 33.8651C72.5387 33.7752 72.2919 33.6494 72.0921 33.4875C71.8981 33.3197 71.7424 33.1219 71.6249 32.8941C71.5132 32.6604 71.428 32.3997 71.3692 32.1119C71.3164 31.8242 71.2811 31.5156 71.2635 31.1859C71.2517 30.8503 71.2458 30.4996 71.2458 30.134V27.1671H70.7522C70.5994 27.1671 70.4466 27.1581 70.2938 27.1401C70.1469 27.1161 70.0147 27.0682 69.8972 26.9962C69.7796 26.9243 69.6827 26.8164 69.6063 26.6726C69.5357 26.5287 69.5005 26.3339 69.5005 26.0882C69.5005 25.8304 69.5357 25.6296 69.6063 25.4858C69.6827 25.3419 69.7796 25.234 69.8972 25.1621C70.0147 25.0902 70.1469 25.0482 70.2938 25.0363C70.4466 25.0183 70.5994 25.0093 70.7522 25.0093H71.2458Z" fill="#1B1D1E"/>
</g>
<defs>
<filter id="filter0_d_407_187" x="0" y="0" width="90" height="45" filterUnits="userSpaceOnUse" color-interpolation-filters="sRGB">
<feFlood flood-opacity="0" result="BackgroundImageFix"/>
<feColorMatrix in="SourceAlpha" type="matrix" values="0 0 0 0 0 0 0 0 0 0 0 0 0 0 0 0 0 0 127 0" result="hardAlpha"/>
<feOffset dy="4"/>
<feGaussianBlur stdDeviation="2"/>
<feComposite in2="hardAlpha" operator="out"/>
<feColorMatrix type="matrix" values="0 0 0 0 0 0 0 0 0 0 0 0 0 0 0 0 0 0 0.25 0"/>
<feBlend mode="normal" in2="BackgroundImageFix" result="effect1_dropShadow_407_187"/>
<feBlend mode="normal" in="SourceGraphic" in2="effect1_dropShadow_407_187" result="shape"/>
</filter>
</defs>
</svg>
